Simulation
nRows=19
nColumns=15
endheader
time  TH_x TH_y TH_z SC_y  SC_z  SC_x  AC_y  AC_z  AC_x  GH_y  GH_z  GH_yy  EL_x  PS_y
0.0  0.000000  0.000000  0.000000  -14.264224432061546  -4.486187599428279  2.193088457997998  53.01372792454861  1.947833641955444  -19.423833833051646  34.607246075300345  16.16529458961334  -17.055647935714656  25.512485085967093  120.000000
0.02799999999999999  0.000000  0.000000  0.000000  -14.49510158890317  -4.171471108505799  1.5878838707176677  52.81476073836152  2.5468878095848786  -18.81702430560619  29.549905239656958  16.0683636018506  -11.93437680321964  25.073890186192482  120.000000
0.05599999999999998  0.000000  0.000000  0.000000  -14.728696335622118  -3.9153746838568226  0.8827393236366687  52.68286515686001  3.0098263394174154  -17.990081523343566  25.683587510441196  16.18470389818291  -7.987964880430426  24.757478816294352  120.000000
0.08399999999999996  0.000000  0.000000  0.000000  -14.936589811702385  -3.752198289954866  0.1534992373325372  52.60322498805211  3.3811283259357214  -17.077879455749855  23.061980346061816  16.444318305026194  -5.268023974488991  24.525980441573406  120.000000
0.11199999999999996  0.000000  0.000000  0.000000  -15.103311053417803  -3.67737684550312  -0.5999991246647506  52.59258776287751  3.7279161504639577  -16.185345573405858  21.687401933688086  16.82194975889264  -3.779490621596839  24.357385022219937  120.000000
0.13999999999999996  0.000000  0.000000  0.000000  -15.225598127491645  -3.656534608060425  -1.3956481065055955  52.647054986999244  4.109241643681213  -15.387934644407164  21.359699897240766  17.299588429930644  -3.3363518011478175  24.22954960295097  120.000000
0.16799999999999993  0.000000  0.000000  0.000000  -15.315560343229977  -3.670147242903596  -2.2132411046713  52.72333470312882  4.5649000546319725  -14.72328189586954  21.697625665372364  17.870182427682504  -3.584697864368807  24.116082328328485  120.000000
0.19599999999999992  0.000000  0.000000  0.000000  -15.402134501615876  -3.7082413559072824  -2.9725940445717045  52.78651652535202  5.084121152336134  -14.1896954821428  22.351271438110878  18.526827825692845  -4.201055326200854  23.998381257887896  120.000000
0.22399999999999992  0.000000  0.000000  0.000000  -15.484445243772013  -3.76205346243775  -3.6508980241876174  52.842486392965675  5.645453792101539  -13.762705283704516  23.088522596641223  19.28696624800243  -4.978211151137196  23.875000165142335  120.000000
0.2519999999999999  0.000000  0.000000  0.000000  -15.565902281308846  -3.8163810763618793  -4.2378370670908305  52.911012354108856  6.21840088202434  -13.41714887229542  23.76741664053313  20.158859595410913  -5.7922773207373845  23.752064406181493  120.000000
0.2799999999999999  0.000000  0.000000  0.000000  -15.649393704345355  -3.8631052428066255  -4.731937111962661  53.006027463236606  6.781512982878194  -13.130254771053085  24.295293388994903  21.148193562406295  -6.566020512801097  23.63693393065741  120.000000
0.3079999999999999  0.000000  0.000000  0.000000  -15.740837725582145  -3.89399955748121  -5.13543506528855  53.13604464731172  7.321159504272914  -12.88214884577224  24.637484120686903  22.25465195969086  -7.273301092947777  23.534563743711335  120.000000
0.33599999999999985  0.000000  0.000000  0.000000  -15.841524461790687  -3.9034237507713376  -5.450404217969066  53.30421176598686  7.830360384222112  -12.661704698155276  24.7905623659049  23.474100219706077  -7.914105655983242  23.446012111667333  120.000000
0.3639999999999999  0.000000  0.000000  0.000000  -15.950770148128878  -3.8857382231108564  -5.682714407828898  53.50848163925158  8.307527266163865  -12.462521639130982  24.774095132467387  24.79802917196833  -8.505620894759103  23.366770859844433  120.000000
0.39199999999999985  0.000000  0.000000  0.000000  -16.066866386429982  -3.837080541737796  -5.833801041280678  53.74388485546094  8.753579830519476  -12.283330486835526  24.615626234761898  26.214656593496347  -9.068650909845092  23.289260297826804  120.000000
0.4199999999999999  0.000000  0.000000  0.000000  -16.183595243731673  -3.754593595199087  -5.907861023349929  54.003661616326106  9.171153221524381  -12.124656484853292  24.34208546727819  27.70971727497691  -9.620882423134262  23.20377003226656  120.000000
0.44799999999999984  0.000000  0.000000  0.000000  -16.297456541812522  -3.636994128091926  -5.9054319003836895  54.281857387466125  9.561898198559856  -11.987321092118526  23.977842000950602  29.2665101901026  -10.174955905631522  23.102422329568768  120.000000
0.4759999999999998  0.000000  0.000000  0.000000  -16.401884337304626  -3.4862356342086174  -5.831815285341261  54.572894964317335  9.928148783998642  -11.871831373336038  23.536963206051375  30.867460846335952  -10.734002643495916  22.979644840521793  120.000000
0.5039999999999998  0.000000  0.000000  0.000000  -16.493651399887433  -3.3036188911711823  -5.6887238283147905  54.87412900454211  10.270071908139652  -11.776728416529169  23.03131038374037  32.49342557417621  -11.297968011064363  22.834962512040182  120.000000
